#!OML:ASF F:\VICON\USERDATA\INSTALL\rory3\rory3.ASF
:FULLY-SPECIFIED
:DEGREES
4633
root -1.16307 14.6553 -16.9049 -536.688 -52.7322 529.764
lowerback 19.0044 3.90502 -7.6977
upperback 0.110388 3.05162 -2.06437
thorax -10.8921 1.70114 1.23824
lowerneck -10.6048 -8.79709 -5.4015
upperneck 18.6063 -13.7225 9.57755
head 8.59057 -6.2073 2.51172
rclavicle 4.82674e-014 -3.67752e-014
rhumerus 51.2781 44.7957 -41.1026
rradius 60.4165
rwrist -75.897
rhand -5.00936 5.72922
rfingers 7.12502
rthumb 20.7844 -23.1776
lclavicle 4.82674e-014 -3.67752e-014
lhumerus 9.24111 -37.1777 69.2565
lradius 121.772
lwrist -15.2595
lhand -18.7605 9.8653
lfingers 7.12502
lthumb 7.53633 39.711
rfemur -31.5755 -26.0004 0.626055
rtibia 64.395
rfoot -20.5342 -7.14398
rtoes 1.33907
lfemur -20.6709 19.1745 -4.22186
ltibia 47.7119
lfoot -9.61963 1.26221
ltoes -1.68449
4634
root -1.14753 14.6602 -16.9189 -536.652 -52.6285 529.793
lowerback 19.2063 3.88014 -7.61755
upperback -0.0834177 3.00339 -2.12389
thorax -11.2137 1.68439 1.12201
lowerneck -10.534 -8.74799 -5.04285
upperneck 18.7011 -13.6861 9.3283
head 8.56192 -6.19252 2.38134
rclavicle 3.23025e-016 -3.39922e-014
rhumerus 51.0288 44.7871 -41.4331
rradius 60.389
rwrist -75.8451
rhand -4.8385 5.64431
rfingers 7.12502
rthumb 20.9486 -23.2445
lclavicle 3.23025e-016 -3.39922e-014
lhumerus 8.83494 -37.2742 69.4015
lradius 121.786
lwrist -15.3075
lhand -18.6207 9.70592
lfingers 7.12502
lthumb 7.67127 39.5468
rfemur -31.7167 -25.9094 0.819971
rtibia 64.3624
rfoot -20.5515 -7.23661
rtoes 1.06492
lfemur -20.5661 19.209 -4.14051
ltibia 47.463
lfoot -9.28325 1.68241
ltoes -2.45765
4635
root -1.13208 14.6641 -16.9348 -536.468 -52.5737 529.619
lowerback 19.16 3.83465 -7.84377
upperback -0.121157 2.90159 -2.08228
thorax -11.2373 1.653 1.32533
lowerneck -10.4512 -8.66149 -4.79369
upperneck 18.7229 -13.5258 8.95296
head 8.49478 -6.13581 2.24476
rclavicle -1.35795e-014 -1.82882e-014
rhumerus 51.1682 44.774 -41.4091
rradius 60.2741
rwrist -75.4438
rhand -4.5157 5.76124
rfingers 7.12502
rthumb 21.2587 -23.0929
lclavicle -1.35795e-014 -1.82882e-014
lhumerus 8.68773 -37.1683 69.5005
lradius 121.856
lwrist -15.4442
lhand -18.4999 9.92535
lfingers 7.12502
lthumb 7.78783 39.7619
rfemur -31.8071 -25.7786 0.863738
rtibia 64.328
rfoot -20.6529 -7.38849
rtoes 1.12149
lfemur -20.4281 19.1171 -4.24071
ltibia 47.1282
lfoot -8.81256 2.46885
ltoes -6.00176
4636
root -1.12111 14.7046 -16.9553 -536.68 -52.5737 529.807
lowerback 19.1982 3.80342 -7.61973
upperback -0.119612 2.91143 -2.06543
thorax -11.2456 1.64694 1.2139
lowerneck -10.4911 -8.71927 -5.21412
upperneck 18.9 -13.6218 9.21939
head 8.61931 -6.18097 2.38046
rclavicle 4.7845e-014 3.57812e-015
rhumerus 51.0998 44.6274 -41.3653
rradius 60.2855
rwrist -75.4311
rhand -4.54865 5.87544
rfingers 7.12502
rthumb 21.227 -22.9823
lclavicle 4.7845e-014 3.57812e-015
lhumerus 8.81515 -37.2865 69.5462
lradius 121.82
lwrist -15.5582
lhand -18.5313 10.1489
lfingers 7.12502
lthumb 7.75751 39.9866
rfemur -31.5283 -25.6804 1.0877
rtibia 64.1523
rfoot -20.8246 -7.49237
rtoes 1.10291
lfemur -20.0195 18.8868 -4.08016
ltibia 46.6826
lfoot -8.62144 2.71418
ltoes -6.08801
4637
root -1.11344 14.7064 -16.9818 -536.582 -52.6049 529.529
lowerback 19.2458 3.83367 -7.70332
upperback -0.11361 2.91842 -2.11472
thorax -11.2689 1.65167 1.20199
lowerneck -10.5298 -8.80282 -5.7
upperneck 19.0553 -13.7709 9.60763
head 8.75633 -6.246 2.56006
rclavicle -2.18663e-015 -6.55989e-015
rhumerus 50.8306 44.4287 -41.4412
rradius 60.3241
rwrist -75.5529
rhand -4.67516 5.88321
rfingers 7.12502
rthumb 21.1055 -22.9881
lclavicle -2.18663e-015 -6.55989e-015
lhumerus 8.81569 -37.4828 69.6541
lradius 121.785
lwrist -15.5491
lhand -18.7702 10.0996
lfingers 7.12502
lthumb 7.52697 39.9457
rfemur -31.3311 -25.8537 0.865635
rtibia 64.2233
rfoot -20.8557 -7.35074
rtoes 1.25722
lfemur -19.5893 18.603 -4.12687
ltibia 46.3173
lfoot -8.68405 2.51199
ltoes -3.86381
4638
root -1.10313 14.6686 -17.0117 -536.133 -52.5799 528.886
lowerback 19.0946 3.92242 -8.23311
upperback -0.0376474 2.91512 -2.20425
thorax -11.1237 1.66659 1.41144
lowerneck -10.5087 -8.86185 -5.53802
upperneck 18.961 -13.8456 9.50945
head 8.70756 -6.28131 2.49458
rclavicle 8.37132e-014 1.74931e-014
rhumerus 50.6311 44.1157 -41.6557
rradius 60.2552
rwrist -75.3789
rhand -4.53167 5.89599
rfingers 7.12502
rthumb 21.2433 -22.9599
lclavicle 8.37132e-014 1.74931e-014
lhumerus 8.92241 -37.5467 69.6436
lradius 121.684
lwrist -15.4787
lhand -18.8674 9.75261
lfingers 7.12502
lthumb 7.43311 39.602
rfemur -31.4208 -26.0715 0.404318
rtibia 64.5414
rfoot -20.9145 -7.06802
rtoes 1.55572
lfemur -19.3424 18.453 -4.38225
ltibia 46.0659
lfoot -8.82224 2.22764
ltoes -2.87929
4639
root -1.08667 14.6696 -17.0377 -536.002 -52.5326 528.644
lowerback 19.0399 3.92477 -8.62792
upperback -0.0021916 2.83999 -2.15836
thorax -11.0708 1.65099 1.70936
lowerneck -10.6073 -8.84349 -5.60929
upperneck 19.0655 -13.8164 9.50154
head 8.7631 -6.26678 2.50127
rclavicle 6.58226e-014 3.3197e-014
rhumerus 50.7668 44.0415 -41.5845
rradius 60.2378
rwrist -75.1734
rhand -4.56425 5.80603
rfingers 7.12502
rthumb 21.212 -23.0534
lclavicle 6.58226e-014 3.3197e-014
lhumerus 8.79571 -37.3752 69.7822
lradius 121.653
lwrist -15.4448
lhand -18.4937 9.71578
lfingers 7.12502
lthumb 7.79387 39.5521
rfemur -31.4172 -26.0127 0.361944
rtibia 64.6986
rfoot -21.0824 -7.08481
rtoes 1.32784
lfemur -19.1309 18.3231 -4.42814
ltibia 45.8454
lfoot -9.07884 1.8432
ltoes -1.61841
4640
root -1.07366 14.6726 -17.0496 -535.869 -52.4557 528.515
lowerback 19.0203 3.89312 -8.70806
upperback -0.0181395 2.78316 -2.14914
thorax -11.0771 1.62992 1.78138
lowerneck -10.8182 -8.85984 -5.86034
upperneck 19.2333 -13.8371 9.62424
head 8.88858 -6.26979 2.56656
rclavicle 3.55576e-014 5.36719e-015
rhumerus 50.9222 43.9284 -41.4833
rradius 60.1523
rwrist -75.0142
rhand -4.64062 5.87222
rfingers 7.12502
rthumb 21.1387 -22.9954
lclavicle 3.55576e-014 5.36719e-015
lhumerus 8.78124 -37.3377 69.9245
lradius 121.532
lwrist -15.6243
lhand -18.381 9.87898
lfingers 7.12502
lthumb 7.90259 39.7113
rfemur -31.5822 -25.9645 0.38581
rtibia 64.8233
rfoot -21.1572 -7.07543
rtoes 1.13867
lfemur -19.0589 18.1981 -4.48633
ltibia 45.6935
lfoot -9.45473 1.2291
ltoes -0.0443786
4641
root -1.05992 14.6756 -17.0562 -536.209 -52.29 528.937
lowerback 19.0621 3.85776 -8.39274
upperback -0.0383395 2.81412 -2.08893
thorax -11.1115 1.63342 1.65971
lowerneck -10.6461 -8.85505 -5.7046
upperneck 19.0315 -13.8173 9.54198
head 8.76869 -6.26877 2.52777
rclavicle -2.97307e-014 -1.80894e-014
rhumerus 51.1175 43.8359 -41.2031
rradius 60.2731
rwrist -74.9681
rhand -5.06299 5.88175
rfingers 7.12502
rthumb 20.7329 -23.0307
lclavicle -2.97307e-014 -1.80894e-014
lhumerus 8.80518 -37.3413 69.997
lradius 121.38
lwrist -15.9431
lhand -18.6677 9.97095
lfingers 7.12502
lthumb 7.62588 39.8135
rfemur -31.7109 -25.7907 0.808893
rtibia 64.8287
rfoot -21.221 -7.09752
rtoes 1.5101
lfemur -18.884 18.208 -4.13023
ltibia 45.5151
lfoot -9.46335 1.02781
ltoes 0.698054
4642
root -1.04451 14.6795 -17.0668 -536.583 -52.1031 529.373
lowerback 19.1038 3.85157 -8.1271
upperback -0.039507 2.8716 -2.03283
thorax -11.1293 1.65005 1.55411
lowerneck -10.4197 -8.80696 -5.1206
upperneck 18.813 -13.7287 9.10182
head 8.56964 -6.24109 2.31775
rclavicle -2.78795e-014 3.00165e-014
rhumerus 51.2409 43.7005 -40.9282
rradius 60.4422
rwrist -74.9397
rhand -5.26304 5.90558
rfingers 7.12502
rthumb 20.5407 -23.0277
lclavicle -2.78795e-014 3.00165e-014
lhumerus 8.86597 -37.3211 69.9247
lradius 121.353
lwrist -16.0686
lhand -18.9145 10.0388
lfingers 7.12502
lthumb 7.38772 39.8898
rfemur -31.7927 -25.5436 1.26094
rtibia 64.8177
rfoot -21.2691 -7.15649
rtoes 1.59728
lfemur -18.6714 18.1183 -3.74646
ltibia 45.3547
lfoot -9.36001 1.51268
ltoes 1.279
4643
root -1.0363 14.6842 -17.0672 -536.195 -52.0638 529.021
lowerback 19.1629 3.79073 -8.09525
upperback -0.156658 2.7686 -2.17088
thorax -11.2776 1.60094 1.40593
lowerneck -10.1534 -8.72329 -4.52132
upperneck 18.7106 -13.5928 8.57432
head 8.3932 -6.19781 2.08495
rclavicle 1.20265e-014 -7.7526e-015
rhumerus 51.083 43.621 -41.1668
rradius 60.3944
rwrist -74.6735
rhand -5.32786 5.93357
rfingers 7.12502
rthumb 20.4784 -23.0065
lclavicle 1.20265e-014 -7.7526e-015
lhumerus 8.67325 -37.3487 69.9263
lradius 121.426
lwrist -16.0935
lhand -18.6724 10.1861
lfingers 7.12502
lthumb 7.62134 40.0288
rfemur -31.9604 -25.7342 1.08781
rtibia 64.8549
rfoot -21.23 -7.06029
rtoes 1.57136
lfemur -18.6717 17.7678 -4.05987
ltibia 45.1422
lfoot -9.58179 1.57687
ltoes 2.96792
4644
root -1.03147 14.6865 -17.0605 -535.738 -52.0344 528.573
lowerback 19.2834 3.71518 -7.9283
upperback -0.29815 2.66189 -2.35972
thorax -11.4792 1.5416 1.12283
lowerneck -10.115 -8.72184 -4.70143
upperneck 18.8438 -13.6142 8.69491
head 8.45439 -6.21013 2.14889
rclavicle -5.28146e-014 -1.96797e-014
rhumerus 50.7666 43.5612 -41.5539
rradius 60.2963
rwrist -74.4369
rhand -5.2275 5.85848
rfingers 7.12502
rthumb 20.5748 -23.0712
lclavicle -5.28146e-014 -1.96797e-014
lhumerus 8.37144 -37.4676 70.1068
lradius 121.42
lwrist -16.2348
lhand -18.5679 10.469
lfingers 7.12502
lthumb 7.72221 40.308
rfemur -32.1312 -26.0113 0.795849
rtibia 64.9137
rfoot -21.0555 -6.93047
rtoes 1.29591
lfemur -18.6191 17.5759 -4.44212
ltibia 44.8706
lfoot -9.70163 1.41131
ltoes 4.69141
4645
root -1.02125 14.687 -17.0822 -535.571 -51.9674 528.264
lowerback 19.2942 3.76178 -8.05708
upperback -0.264166 2.67934 -2.43501
thorax -11.452 1.55002 1.10735
lowerneck -10.2805 -8.80842 -4.90003
upperneck 18.9327 -13.7404 8.84015
head 8.54947 -6.26103 2.20167
rclavicle -4.29002e-014 1.70955e-014
rhumerus 50.5338 43.3009 -41.7496
rradius 60.2637
rwrist -74.2696
rhand -4.98808 5.88752
rfingers 7.12502
rthumb 20.8049 -23.0171
lclavicle -4.29002e-014 1.70955e-014
lhumerus 8.39271 -37.5975 70.23
lradius 121.42
lwrist -16.3039
lhand -18.7319 10.3908
lfingers 7.12502
lthumb 7.56394 40.2355
rfemur -32.0747 -25.9289 0.641629
rtibia 64.9684
rfoot -21.126 -6.84026
rtoes 2.14618
lfemur -18.2828 17.4509 -4.54333
ltibia 44.5334
lfoot -9.58062 1.54547
ltoes 6.06391
